<?xml version="1.0" encoding="UTF-8"?>
<svg version="1.1" xmlns="http://www.w3.org/2000/svg" width="512" height="512">
<path d="M0 0 C13.2698676 9.75932062 22.16817626 22.70821552 25.54296875 39.0234375 C27.60848546 54.8787372 25.5838104 70.96629123 15.953125 84.171875 C8.66542699 92.8370344 0.52574462 100.72913958 -7.48828125 108.7109375 C-8.86569331 110.08648029 -10.24288166 111.46224714 -11.61985779 112.83822632 C-15.21291881 116.4275022 -18.80897449 120.01376263 -22.40570068 123.59936523 C-26.08806535 127.27142886 -29.76753674 130.94638918 -33.44726562 134.62109375 C-40.6443352 141.80749677 -47.84457746 148.99071178 -55.046875 156.171875 C-53.39633597 160.47680782 -50.13395573 163.31406173 -46.90405273 166.46240234 C-46.27448166 167.08423401 -45.64491058 167.70606567 -44.9962616 168.34674072 C-43.6287964 169.69656027 -42.25914306 171.04416583 -40.88757133 172.38981247 C-38.7073899 174.530473 -36.53489431 176.67865637 -34.36451721 178.82925415 C-28.19242477 184.94344002 -22.01117591 191.04822949 -15.81420898 197.13720703 C-12.02079503 200.86559188 -8.24016294 204.60655765 -4.46690559 208.35533524 C-3.0360938 209.77202306 -1.60064781 211.18404827 -0.1602459 212.59098434 C14.34371047 226.76294624 26.86711455 241.91464266 27.19506836 263.16357422 C27.24878067 280.71936093 22.8586622 296.08065424 10.328125 308.9921875 C-3.27008768 321.47212611 -18.94505346 325.85231904 -36.9921875 325.48046875 C-61.95699786 324.35504426 -77.91487145 305.47075127 -94.34375 288.97265625 C-95.6715931 287.64294245 -96.99966132 286.31345342 -98.32794189 284.98417664 C-101.78238678 281.52595781 -105.23381523 278.06474439 -108.68457031 274.60284424 C-112.22275103 271.05433769 -115.76385073 267.50874652 -119.3046875 263.96289062 C-126.22156942 257.03536204 -133.13526022 250.10465836 -140.046875 243.171875 C-142.82862634 244.4418756 -144.86421604 245.74315384 -147.01091003 247.91558838 C-147.56715057 248.47341507 -148.12339111 249.03124176 -148.69648743 249.60597229 C-149.59345589 250.52079628 -149.59345589 250.52079628 -150.50854492 251.45410156 C-151.46796997 252.42031685 -151.46796997 252.42031685 -152.44677734 253.40605164 C-153.83432449 254.80455045 -155.21958992 256.20531598 -156.6028347 257.60807037 C-158.79746915 259.83290232 -160.99874317 262.05096216 -163.20198059 264.26727295 C-169.46492915 270.56993194 -175.71523148 276.88507789 -181.9621582 283.20361328 C-185.78588041 287.07023224 -189.61702985 290.92936937 -193.45253944 294.78429413 C-194.90781053 296.25008483 -196.36016273 297.71877981 -197.80943871 299.19049835 C-215.30144301 316.95279685 -215.30144301 316.95279685 -227.234375 320.984375 C-228.38292969 321.38269531 -229.53148437 321.78101563 -230.71484375 322.19140625 C-246.52500397 326.84363393 -263.75581227 324.66473693 -278.1953125 316.96875 C-283.03108883 313.92154848 -287.04449367 310.22994164 -291.046875 306.171875 C-291.69527344 305.53378906 -292.34367187 304.89570313 -293.01171875 304.23828125 C-304.21873252 292.44271534 -307.557241 277.76360816 -307.46875 262.01635742 C-307.26613933 254.5497544 -306.06557647 248.05148618 -303.046875 241.171875 C-302.64597656 240.24503906 -302.24507813 239.31820312 -301.83203125 238.36328125 C-295.24643649 224.90576153 -282.35393945 214.33720491 -271.84765625 203.875 C-270.51794245 202.5471569 -269.18845342 201.21908868 -267.85917664 199.89080811 C-264.40095781 196.43636322 -260.93974439 192.98493477 -257.47784424 189.53417969 C-253.92933769 185.99599897 -250.38374652 182.45489927 -246.83789062 178.9140625 C-239.91036204 171.99718058 -232.97965836 165.08348978 -226.046875 158.171875 C-229.84517436 153.62645905 -233.77322199 149.31452619 -238.0012207 145.16748047 C-238.56310089 144.61187943 -239.12498108 144.05627838 -239.70388794 143.48384094 C-240.91245361 142.289018 -242.12209667 141.09528403 -243.33272743 139.90255356 C-245.25892178 138.00330428 -247.18045302 136.09945239 -249.10063171 134.19412231 C-254.55655019 128.78063343 -260.01494772 123.36974125 -265.48999023 117.97558594 C-268.85149077 114.66307781 -272.20274235 111.34048328 -275.54787254 108.01144791 C-276.81224315 106.75686384 -278.08023056 105.5059123 -279.35213661 104.25896835 C-288.96739179 94.82821124 -298.87273868 84.80812754 -303.046875 71.671875 C-303.418125 70.5478125 -303.789375 69.42375 -304.171875 68.265625 C-308.80971164 51.86755975 -306.10579008 35.33843561 -298.0625 20.50390625 C-289.6363583 6.57464488 -276.8437873 -2.10476844 -261.421875 -6.640625 C-244.79451906 -10.41956953 -228.63888326 -7.51140133 -214.046875 1.171875 C-204.62387141 7.99893195 -196.57780848 16.37940488 -188.41015625 24.61328125 C-187.03626341 25.99091323 -185.66192167 27.36809767 -184.28715515 28.74485779 C-180.70387232 32.33570624 -177.12664151 35.93252324 -173.55072021 39.53070068 C-169.88712265 43.21491064 -166.21771901 46.89332828 -162.54882812 50.57226562 C-155.37587865 57.76653994 -148.20932172 64.96714537 -141.046875 72.171875 C-136.3861078 68.2835017 -131.98702344 64.2402491 -127.73535156 59.91040039 C-127.14727722 59.31604691 -126.55920288 58.72169342 -125.95330811 58.10932922 C-124.68809385 56.83036533 -123.42396568 55.55032625 -122.16083527 54.26930428 C-120.15289736 52.23446502 -118.14039003 50.20425201 -116.12640381 48.17539978 C-110.40413736 42.41065043 -104.68452731 36.64335633 -98.98144531 30.85961914 C-95.4808355 27.31017514 -91.97027013 23.77083952 -88.45323944 20.23766899 C-87.12445251 18.89906102 -85.79930846 17.55682561 -84.47809601 16.21074104 C-61.45155243 -7.23957618 -30.29134071 -18.95233617 0 0 Z " fill="#FEA81A" transform="translate(396.046875,97.828125)"/>
<path d="M0 0 C1.39895508 -0.0309375 1.39895508 -0.0309375 2.82617188 -0.0625 C11.6206569 -0.11264674 11.6206569 -0.11264674 15.4375 3.25 C15.8125 5.875 15.8125 5.875 15.4375 8.25 C14.4375 9.25 14.4375 9.25 12.09594727 9.30004883 C11.07557373 9.26935303 10.0552002 9.23865723 9.00390625 9.20703125 C7.87919922 9.18576172 6.75449219 9.16449219 5.59570312 9.14257812 C3.23341263 9.08996872 0.87135507 9.0252364 -1.49023438 8.94726562 C-13.38101727 8.76516061 -22.59797408 12.37025705 -31.5625 20.25 C-34.31438352 23.3807279 -36.49270507 26.63746668 -38.5625 30.25 C-38.99691406 30.97445312 -39.43132812 31.69890625 -39.87890625 32.4453125 C-44.72739122 42.14228243 -44.01552847 55.69269608 -41 65.875 C-37.96194599 74.65160049 -30.4792099 81.62669003 -23.95898438 87.96948242 C-23.23459167 88.68292313 -22.51019897 89.39636383 -21.76385498 90.13142395 C-20.20712608 91.66399208 -18.64822214 93.19435353 -17.08732605 94.72267723 C-14.61882552 97.14214993 -12.15907045 99.57019615 -9.70178223 102.00105286 C-2.72070892 108.9060926 4.26735451 115.80382384 11.28125 122.67553711 C15.58364614 126.89194163 19.86892761 131.12509133 24.14347839 135.36971474 C25.77346425 136.98172777 27.40986612 138.58727964 29.0526886 140.18620872 C31.34107793 142.41460238 33.60708765 144.66362311 35.86914062 146.91870117 C36.89596954 147.90306656 36.89596954 147.90306656 37.94354248 148.90731812 C42.35861308 153.3710239 42.35861308 153.3710239 42.71160889 157.30418396 C41.03728166 161.17532876 38.58341047 163.80298317 35.62011719 166.71435547 C35.01352768 167.32970657 34.40693817 167.94505768 33.78196716 168.57905579 C31.77847896 170.604506 29.75730599 172.61116941 27.734375 174.6171875 C26.33457404 176.02035702 24.93551599 177.42426803 23.53717041 178.82888794 C20.6062482 181.76717687 17.6664845 184.69624345 14.72021484 187.61914062 C10.94238426 191.36845852 7.18747913 195.13981149 3.43888474 198.91833305 C0.55516107 201.82011191 -2.34035033 204.7098914 -5.23958588 207.5961647 C-6.62915011 208.98239143 -8.01500389 210.37234778 -9.39707184 211.76604843 C-11.32872931 213.71038695 -13.27565966 215.63800326 -15.22753906 217.56201172 C-15.79708817 218.14168198 -16.36663727 218.72135223 -16.95344543 219.31858826 C-19.3618246 221.66355982 -20.97036747 223.14732013 -24.33343506 223.73049927 C-26.5625 223.25 -26.5625 223.25 -28.5625 221.25 C-28.50701258 217.00211664 -26.60335208 214.82530876 -23.69386292 211.88368225 C-23.14576462 211.34996506 -22.59766632 210.81624786 -22.03295898 210.26635742 C-21.45735229 209.69016663 -20.88174561 209.11397583 -20.28869629 208.52032471 C-18.38799121 206.62240137 -16.47352257 204.7390309 -14.55859375 202.85546875 C-13.23635804 201.54069506 -11.91500401 200.22503415 -10.59449768 198.90852356 C-7.11965232 195.44893737 -3.63296205 192.00153218 -0.14367676 188.55651855 C3.41599843 185.03778947 6.96435159 181.50768395 10.51367188 177.97851562 C17.47724089 171.05782254 24.45337502 164.14994382 31.4375 157.25 C30.13151389 154.36535829 28.74766804 152.31626551 26.49723816 150.09614563 C25.89589554 149.49783432 25.29455292 148.89952301 24.67498779 148.28308105 C24.0167804 147.63834839 23.358573 146.99361572 22.68041992 146.3293457 C21.98590225 145.64096115 21.29138458 144.9525766 20.57582092 144.24333191 C19.06760295 142.74941555 17.55715735 141.25774557 16.04475975 139.76806068 C13.64763762 137.40574534 11.25769509 135.03638503 8.8697052 132.6648407 C2.07903013 125.92303742 -4.72257948 119.19234923 -11.53344727 112.47094727 C-15.70050396 108.35763592 -19.85762086 104.23449031 -24.00888634 100.10524559 C-25.58906235 98.537443 -27.1730179 96.9734399 -28.76087379 95.41341591 C-30.98897916 93.22400367 -33.20424764 91.02230326 -35.41723633 88.81762695 C-36.06937103 88.18301544 -36.72150574 87.54840393 -37.3934021 86.89456177 C-41.80838998 82.46068944 -44.78644812 77.84473083 -47.5625 72.25 C-48.00658203 71.37077881 -48.45066406 70.49155762 -48.90820312 69.58569336 C-51.61903816 63.25923258 -52.19386933 57.65735409 -52.0625 50.8125 C-52.04968994 49.79768555 -52.03687988 48.78287109 -52.02368164 47.73730469 C-51.82972418 40.59368437 -51.11923092 34.56135041 -47.5625 28.25 C-46.83353516 26.87714844 -46.83353516 26.87714844 -46.08984375 25.4765625 C-39.16126805 13.51944605 -29.21205514 6.28584186 -16.5625 1.25 C-11.12143327 -0.07371072 -5.57149713 0.03093128 0 0 Z " fill="#FFC71C" transform="translate(150.5625,98.75)"/>
<path d="M0 0 C3.18086518 1.50946511 5.29869906 3.07941825 7.75 5.625 C8.36359375 6.25664062 8.9771875 6.88828125 9.609375 7.5390625 C10.06828125 8.02117187 10.5271875 8.50328125 11 9 C9.72411053 11.7927982 8.4022694 13.84932328 6.23851013 16.02218628 C5.67660477 16.59117645 5.1146994 17.16016663 4.5357666 17.74639893 C3.92124634 18.35844177 3.30672607 18.97048462 2.67358398 19.60107422 C1.69996666 20.58235794 1.69996666 20.58235794 0.7066803 21.58346558 C-1.44169257 23.74574223 -3.59742043 25.90050402 -5.75390625 28.0546875 C-7.25428433 29.55895378 -8.75443877 31.06344315 -10.25437927 32.56814575 C-13.40259003 35.7238217 -16.55465299 38.87558945 -19.70922852 42.02490234 C-23.7368579 46.04675524 -27.75304947 50.07981448 -31.76614475 54.11616325 C-34.86399099 57.228801 -37.96880061 60.33442046 -41.07560539 63.43811417 C-42.55819811 64.92121798 -44.03844913 66.40666672 -45.51623726 67.89455795 C-47.59295056 69.98371468 -49.67912546 72.06296966 -51.76782227 74.14013672 C-52.36817291 74.7481311 -52.96852356 75.35612549 -53.58706665 75.98254395 C-59.89791677 82.21728864 -66.76661084 86.96747643 -75.1875 89.8125 C-76.33605469 90.21082031 -77.48460937 90.60914063 -78.66796875 91.01953125 C-94.47702324 95.67143357 -111.68282798 93.48637956 -126.12890625 85.8125 C-132.01246696 82.09825215 -138.23428854 77.57228206 -141 71 C-139.92621094 71.55429687 -138.85242188 72.10859375 -137.74609375 72.6796875 C-136.31006109 73.41178258 -134.87385382 74.14353523 -133.4375 74.875 C-132.38079102 75.42220703 -132.38079102 75.42220703 -131.30273438 75.98046875 C-118.89709601 82.26904119 -103.2974551 83.45368024 -89.703125 80.125 C-86.23894943 78.95487847 -83.21968191 77.73778798 -80 76 C-79.28739014 75.62045166 -78.57478027 75.24090332 -77.84057617 74.84985352 C-68.09637061 69.18269786 -60.6888434 61.19343503 -52.83203125 53.22265625 C-51.30163607 51.68478738 -49.77034543 50.14780915 -48.23820496 48.61167908 C-44.2361526 44.59445945 -40.2462671 40.5653694 -36.25891113 36.53356934 C-32.1767212 32.41023363 -28.08297928 28.29840135 -23.99023438 24.18554688 C-15.98222964 16.13482865 -7.98704861 8.07150533 0 0 Z " fill="#EF7916" transform="translate(244,329)"/>
<path d="M0 0 C10.53260596 4.80636385 15.41083476 15.49694622 19.3125 25.8125 C24.2477059 39.57693502 23.31098806 55.99944233 17.55859375 69.34375 C10.69886497 82.96771249 -0.9669649 93.10691635 -11.66015625 103.7578125 C-13.05998852 105.15577559 -14.45959713 106.55396266 -15.85899353 107.95236206 C-19.51123859 111.60082127 -23.16647844 115.24626522 -26.8223877 118.89105225 C-30.56507468 122.62343976 -34.30486977 126.35872253 -38.04492188 130.09375 C-45.36048159 137.3986419 -52.67921393 144.7003461 -60 152 C-63.18086518 150.49053489 -65.29869906 148.92058175 -67.75 146.375 C-68.36359375 145.74335938 -68.9771875 145.11171875 -69.609375 144.4609375 C-70.06828125 143.97882813 -70.5271875 143.49671875 -71 143 C-64.83475115 135.44784104 -57.80588431 128.74198698 -50.87963867 121.90014648 C-49.23140934 120.27022278 -47.58636511 118.63712956 -45.94140625 117.00390625 C-45.44951309 116.52031143 -44.95761993 116.03671661 -44.45082092 115.53846741 C-41.70732747 112.81382938 -39.11544116 110.01018336 -36.59130859 107.08032227 C-33.12052954 103.07375886 -29.41482245 99.38477453 -25.59765625 95.7109375 C-24.19780549 94.34322762 -22.79874148 92.9747121 -21.40039062 91.60546875 C-19.23783254 89.49202084 -17.07136672 87.38351883 -14.89086914 85.28857422 C-2.04350435 72.9230766 9.42395647 60.16782945 10.43359375 41.44921875 C10.4569815 39.5287878 10.45776623 37.60796643 10.4375 35.6875 C10.42992676 34.6778418 10.42235352 33.66818359 10.41455078 32.62792969 C10.14031896 20.17340111 6.41652671 10.67282275 0 0 Z " fill="#EF7916" transform="translate(400,103)"/>
<path d="M0 0 C4.57126769 1.35902553 5.75227453 2.88858256 8 7 C9.21137994 9.25818487 10.39739231 11.53009681 11.5625 13.8125 C12.16191406 14.97394531 12.76132812 16.13539062 13.37890625 17.33203125 C18.92148891 29.20398847 19.28458292 46.25465264 15.4375 58.6875 C14.64515041 60.46744075 13.83041108 62.23749486 13 64 C12.63656494 64.81412354 12.27312988 65.62824707 11.89868164 66.46704102 C6.00503095 77.97258685 -3.84473656 86.34715441 -13 95.25 C-15.59464927 97.79438035 -18.18565145 100.34239234 -20.77441406 102.89276123 C-22.37635555 104.46867511 -23.98222715 106.04060812 -25.59277344 107.60772705 C-29.70900426 111.63348261 -33.60131966 115.75533046 -37.35354614 120.121521 C-39.9024016 123.0295718 -42.624503 125.74877627 -45.37109375 128.46875 C-45.93828629 129.03452759 -46.50547882 129.60030518 -47.08985901 130.18322754 C-48.87003423 131.95788577 -50.65368519 133.72900099 -52.4375 135.5 C-53.6584369 136.71591114 -54.87914192 137.93205516 -56.09960938 139.1484375 C-59.06374013 142.10164966 -62.03098958 145.05169398 -65 148 C-68.59634744 144.50640535 -71.83451967 140.88901869 -75 137 C-74.45098526 136.45320587 -73.90197052 135.90641174 -73.33631897 135.3430481 C-68.16876835 130.19551495 -63.00361367 125.04559527 -57.84114933 119.8929615 C-55.18684383 117.24387984 -52.53161394 114.5957386 -49.87426758 111.94970703 C-47.31095579 109.39724178 -44.75007768 106.84235829 -42.19088554 104.28576279 C-41.21292262 103.30965092 -40.23407841 102.33442121 -39.25435066 101.36008072 C-37.88478292 99.99774673 -36.51860211 98.63201037 -35.15258789 97.26611328 C-34.37315323 96.48889923 -33.59371857 95.71168518 -32.79066467 94.91091919 C-30.94036598 93.11844622 -30.94036598 93.11844622 -30 91 C-29.34 91 -28.68 91 -28 91 C-28 90.34 -28 89.68 -28 89 C-27.34 89 -26.68 89 -26 89 C-26 88.34 -26 87.68 -26 87 C-24.625 85.375 -24.625 85.375 -23 84 C-22.34 84 -21.68 84 -21 84 C-21 83.34 -21 82.68 -21 82 C-19.6015625 80.6953125 -19.6015625 80.6953125 -17.625 79.125 C-3.51966963 67.01688455 5.315754 51.72664703 7.3125 33.08203125 C7.77631244 22.34187435 4.88703015 11.49400126 0 2 C0 1.34 0 0.68 0 0 Z " fill="#F69118" transform="translate(394,98)"/>
<path d="M0 0 C1.11677492 0.94947559 2.23244654 1.90024897 3.34765625 2.8515625 C3.96906494 3.38088379 4.59047363 3.91020508 5.23071289 4.45556641 C7.2481965 6.21665393 9.14412108 8.06988592 11 10 C10.38363678 10.50672241 10.38363678 10.50672241 9.75482178 11.02368164 C3.00114851 16.74691539 -3.12871183 23.0748685 -9.33159637 29.37869263 C-12.11162888 32.20126475 -14.90139961 35.01413028 -17.69055557 37.8276825 C-22.86537813 43.04796911 -28.0362983 48.27197088 -33.19042969 53.51269531 C-36.79370786 57.17575433 -40.40941446 60.82614471 -44.03333282 64.46878052 C-45.40127227 65.84836784 -46.76469518 67.23245049 -48.12322235 68.62130737 C-61.26863562 82.05274907 -74.27078788 91.89814273 -93.79516602 92.47045898 C-103.42360448 92.55921049 -112.22900598 92.38549701 -121 88 C-122.47339844 87.29423828 -122.47339844 87.29423828 -123.9765625 86.57421875 C-129.04607715 83.98595731 -133.4075665 81.45957262 -137 77 C-137 76.34 -137 75.68 -137 75 C-132.98001007 76.30649673 -129.04499426 77.74024189 -125.125 79.31640625 C-112.49820875 83.37833358 -94.84156969 82.84184105 -83 77 C-82.05769531 76.56042969 -81.11539063 76.12085938 -80.14453125 75.66796875 C-74.38176004 72.66097453 -69.63271999 69.00125959 -64.921875 64.546875 C-64.30021957 63.96267792 -63.67856415 63.37848083 -63.03807068 62.77658081 C-51.46083726 51.78899844 -40.27599137 40.38415878 -29.01055908 29.07922363 C-25.73352935 25.79182388 -22.45354083 22.50737892 -19.17382812 19.22265625 C-12.77971464 12.81793126 -6.38879763 6.41002735 0 0 Z " fill="#F79218" transform="translate(235,319)"/>
<path d="M0 0 C3.07534833 0.2998639 4.01573508 1.01657954 6.18359375 3.30078125 C18.26722118 19.44718809 22.20516738 36.30086887 19.5703125 56.25390625 C15.87328811 71.56688997 6.81001165 84.80792 -6.32421875 93.46875 C-21.67992059 102.25624653 -39.30730542 104.89841073 -56.5 100.4375 C-65.05101202 97.60062352 -73.31747143 93.09040579 -80 87 C-80 86.01 -80 85.02 -80 84 C-74.97771592 85.10214713 -70.22504245 87.07228385 -65.41015625 88.84375 C-51.33893891 93.61474695 -36.11425741 91.49418889 -22.875 85.3125 C-7.19738158 76.95246619 2.3820749 64.51000676 7.7421875 47.66796875 C12.03741903 31.34020507 7.64412574 14.52383891 0 0 Z " fill="#EF7916" transform="translate(403,321)"/>
<path d="M0 0 C3.68069887 1.53643852 5.98775204 3.78150945 8.75 6.625 C9.54921875 7.44226563 10.3484375 8.25953125 11.171875 9.1015625 C11.77515625 9.72804688 12.3784375 10.35453125 13 11 C12.67 11.66 12.34 12.32 12 13 C12.85924201 14.93256137 13.81370184 16.82323271 14.8125 18.6875 C21.68934024 32.05913379 23.11823184 47.44504375 19.03515625 61.9921875 C13.485802 78.11672627 3.17371115 90.31664434 -11.875 98.3125 C-26.55198362 105.16549363 -42.61700022 106.41684724 -58 101 C-61.73448834 99.46038272 -65.38452117 97.80062233 -69 96 C-69.495 96.99 -69.495 96.99 -70 98 C-72.34138543 95.71643754 -74.67166982 93.42186626 -77 91.125 C-77.66773438 90.47402344 -78.33546875 89.82304687 -79.0234375 89.15234375 C-79.65507812 88.52714844 -80.28671875 87.90195312 -80.9375 87.2578125 C-81.52402344 86.6817627 -82.11054688 86.10571289 -82.71484375 85.51220703 C-84 84 -84 84 -84 82 C-81.77815124 83.09520375 -79.58560135 84.22404987 -77.40625 85.40234375 C-62.81729146 93.10860814 -47.07951674 95.79479769 -31 91.09765625 C-14.71900055 85.14067598 -2.75345315 75.61540457 5 60 C6.65677307 55.72534241 7.93372712 51.4554974 9 47 C9.19078125 46.37351562 9.3815625 45.74703125 9.578125 45.1015625 C12.36498239 31.21888404 8.82809023 17.71530335 2.3046875 5.49609375 C1 3 1 3 0 0 Z " fill="#F69119" transform="translate(392,309)"/>
<path d="M0 0 C2.5625 0.1875 2.5625 0.1875 4.5625 2.1875 C4.1875 4.8125 4.1875 4.8125 3.5625 7.1875 C1.56295254 7.23004356 -0.43791636 7.22830783 -2.4375 7.1875 C-3.4375 6.1875 -3.4375 6.1875 -3.5625 3.6875 C-3.39599509 0.35740177 -3.31519894 0.2550153 0 0 Z " fill="#FFC61C" transform="translate(114.4375,325.8125)"/>
</svg>
