<?xml version="1.0" encoding="UTF-8"?>
<svg version="1.1" xmlns="http://www.w3.org/2000/svg" width="512" height="512">
<path d="M0 0 C1.20343938 -0.00480972 1.20343938 -0.00480972 2.43119067 -0.0097166 C5.11839052 -0.01801506 7.8053674 -0.01209284 10.49257088 -0.00622082 C12.43910529 -0.00924157 14.38563852 -0.01313066 16.33216965 -0.01781338 C21.68054194 -0.02811195 27.02884734 -0.02590682 32.37722516 -0.02163279 C38.14557004 -0.01916895 43.91389867 -0.02817548 49.68223763 -0.03567028 C60.98277083 -0.04842877 72.2832803 -0.05020954 83.58381949 -0.04787002 C92.76788479 -0.046088 101.95194287 -0.047834 111.13600731 -0.05209446 C112.44243088 -0.05268965 113.74885445 -0.05328484 115.09486661 -0.05389806 C117.74874829 -0.0551098 120.40262998 -0.05632393 123.05651166 -0.05754044 C140.87917158 -0.0654838 158.70182898 -0.06924568 176.52449036 -0.06522369 C177.5698718 -0.06498913 177.5698718 -0.06498913 178.63637207 -0.06474983 C182.16861589 -0.06394405 185.70085969 -0.06309828 189.2331035 -0.06223653 C190.28536905 -0.06197989 190.28536905 -0.06197989 191.35889249 -0.06171808 C192.77751666 -0.06137142 194.19614083 -0.06102289 195.614765 -0.06067249 C217.68913121 -0.05531515 239.76345748 -0.06324618 261.83781624 -0.08170605 C286.64079848 -0.10242348 311.44375576 -0.11311817 336.24674714 -0.10913056 C349.37861801 -0.1072167 362.51045248 -0.10972412 375.64231682 -0.1238451 C386.82143972 -0.13574447 398.00050383 -0.13717999 409.17962752 -0.12505493 C414.88397996 -0.11915616 420.58822477 -0.11809447 426.29257011 -0.13005733 C431.5147243 -0.14088177 436.73668057 -0.13785373 441.95882536 -0.12379565 C443.84772732 -0.12113924 445.73664461 -0.12354477 447.62553154 -0.13153151 C467.49424138 -0.20970902 467.49424138 -0.20970902 476.04240608 5.37947559 C481.8635745 11.46524257 484.10830148 16.27085043 484.35490608 24.81697559 C484.04367569 33.00724906 482.48868999 37.9912572 476.47990608 43.56697559 C470.75948593 48.40093839 464.84139455 49.70116556 457.52513599 49.63758564 C456.71638917 49.64254516 455.90764236 49.64750467 455.07438806 49.65261447 C452.36513661 49.66556499 449.65637846 49.65718764 446.94711494 49.64888477 C444.98479196 49.65377393 443.02247185 49.65996385 441.06015664 49.66734266 C435.66808588 49.68376215 430.27616113 49.68142013 424.88407409 49.67596769 C419.06866396 49.67329998 413.25329298 49.68782447 407.43789864 49.70006275 C396.04478125 49.72112999 384.65171473 49.72565685 373.25858017 49.72387487 C363.99871894 49.72256787 354.73887359 49.72636821 345.47901535 49.73379993 C342.81294467 49.7358991 340.14687399 49.73799702 337.48080331 49.74009275 C336.81799888 49.74061675 336.15519444 49.74114074 335.47230503 49.74168061 C316.83071274 49.75626362 298.18912613 49.76454654 279.54752827 49.75993061 C278.84480108 49.75975866 278.14207389 49.7595867 277.41805194 49.75940954 C273.85638988 49.75852065 270.29472784 49.75757584 266.73306581 49.75661153 C266.02571488 49.75642049 265.31836395 49.75622946 264.58957814 49.75603264 C263.15914255 49.75564555 261.72870696 49.75525522 260.29827137 49.75486166 C238.04261168 49.74889215 215.78705599 49.76432782 193.53141975 49.79646778 C168.52369553 49.83255153 143.51603724 49.85187647 118.50828534 49.84692907 C105.26848693 49.844596 92.02878722 49.84994187 78.78900909 49.87482166 C67.51729065 49.89582259 56.24573182 49.89943868 44.97400685 49.88052207 C39.2228807 49.87135684 33.47205224 49.8702457 27.72094917 49.89087772 C22.45483079 49.90956094 17.18925447 49.90511355 11.92315689 49.88233191 C10.01943152 49.87813949 8.1156648 49.88236764 6.21198311 49.89592785 C-14.10298173 50.03076425 -14.10298173 50.03076425 -22.12467891 42.44049692 C-28.07391868 36.10374158 -28.91526974 29.56919055 -28.64900017 21.06306934 C-27.89586031 14.56473873 -25.16036216 10.09938016 -20.49665642 5.60603809 C-14.35591485 0.79903225 -7.61257745 -0.04545575 0 0 Z " fill="#F9963D" transform="translate(28.20759391784668,399.7455244064331)"/>
<path d="M0 0 C0.80874682 -0.00495952 1.61749364 -0.00991903 2.45074794 -0.01502883 C5.15999938 -0.02797935 7.86875754 -0.019602 10.57802105 -0.01129913 C12.54034404 -0.01618829 14.50266414 -0.02237821 16.46497935 -0.02975702 C21.85705012 -0.04617651 27.24897486 -0.04383449 32.6410619 -0.03838205 C38.45647203 -0.03571434 44.27184301 -0.05023883 50.08723736 -0.06247711 C61.48035475 -0.08354435 72.87342126 -0.08807121 84.26655582 -0.08628923 C93.52641706 -0.08498223 102.7862624 -0.08878257 112.04612064 -0.09621429 C114.71219132 -0.09831346 117.378262 -0.10041138 120.04433268 -0.10250711 C120.70713712 -0.10303111 121.36994155 -0.1035551 122.05283097 -0.10409497 C140.69442325 -0.11867798 159.33600986 -0.1269609 177.97760773 -0.12234497 C178.68033491 -0.12217302 179.3830621 -0.12200106 180.10708405 -0.1218239 C183.66874611 -0.12093501 187.23040815 -0.1199902 190.79207019 -0.11902589 C191.49942112 -0.11883485 192.20677205 -0.11864382 192.93555785 -0.118447 C194.36599344 -0.11805991 195.79642904 -0.11766958 197.22686463 -0.11727602 C219.48252431 -0.11130651 241.73808 -0.12674218 263.99371624 -0.15888214 C289.00144047 -0.19496589 314.00909875 -0.21429083 339.01685065 -0.20934343 C352.25664907 -0.20701036 365.49634877 -0.21235623 378.7361269 -0.23723602 C390.00784534 -0.25823695 401.27940417 -0.26185304 412.55112914 -0.24293643 C418.3022553 -0.2337712 424.05308376 -0.23266006 429.80418682 -0.25329208 C435.07030521 -0.2719753 440.33588152 -0.26752791 445.6019791 -0.24474627 C447.50570447 -0.24055385 449.40947119 -0.244782 451.31315289 -0.25834221 C471.62811773 -0.39317861 471.62811773 -0.39317861 479.6498149 7.19708872 C485.59905467 13.53384406 486.44040573 20.06839509 486.17413616 28.5745163 C485.42099631 35.07284691 482.68549815 39.53820548 478.02179241 44.03154755 C471.88105085 48.83855339 465.13771345 49.68304139 457.52513599 49.63758564 C456.32169661 49.64239536 456.32169661 49.64239536 455.09394532 49.64730224 C452.40674548 49.6556007 449.7197686 49.64967848 447.03256512 49.64380646 C445.0860307 49.64682721 443.13949747 49.6507163 441.19296634 49.65539902 C435.84459405 49.66569759 430.49628866 49.66349246 425.14791083 49.65921843 C419.37956595 49.65675459 413.61123732 49.66576112 407.84289837 49.67325592 C396.54236516 49.68601441 385.2418557 49.68779518 373.9413165 49.68545566 C364.7572512 49.68367364 355.57319312 49.68541964 346.38912868 49.6896801 C345.08270512 49.69027529 343.77628155 49.69087048 342.43026938 49.6914837 C339.7763877 49.69269544 337.12250602 49.69390957 334.46862434 49.69512608 C316.64596441 49.70306944 298.82330702 49.70683132 281.00064564 49.70280933 C279.95526419 49.70257477 279.95526419 49.70257477 278.88876393 49.70233547 C275.35652011 49.70152969 271.8242763 49.70068392 268.2920325 49.69982217 C267.59052213 49.69965108 266.88901176 49.69947999 266.1662435 49.69930372 C264.74761933 49.69895706 263.32899516 49.69860853 261.910371 49.69825813 C239.83600478 49.69290079 217.76167852 49.70083182 195.68731976 49.71929169 C170.88433751 49.74000912 146.08138024 49.75070381 121.27838886 49.7467162 C108.14651799 49.74480234 95.01468351 49.74730976 81.88281918 49.76143074 C70.70369627 49.77333011 59.52463216 49.77476563 48.34550847 49.76264057 C42.64115604 49.7567418 36.93691122 49.75568011 31.23256588 49.76764297 C26.01041169 49.77846741 20.78845543 49.77543937 15.56631063 49.76138129 C13.67740868 49.75872488 11.78849139 49.76113041 9.89960445 49.76911715 C-9.96910539 49.84729466 -9.96910539 49.84729466 -18.51727009 44.25811005 C-24.3384385 38.17234307 -26.58316548 33.36673521 -26.82977009 24.82061005 C-26.5185397 16.63033658 -24.96355399 11.64632844 -18.95477009 6.07061005 C-13.23434993 1.23664725 -7.31625855 -0.06357992 0 0 Z " fill="#FBA74B" transform="translate(26.2672700881958,62.61688995361328)"/>
<path d="M0 0 C1.21562261 -0.00525911 1.21562261 -0.00525911 2.45580325 -0.01062447 C5.18266079 -0.01995904 7.90930574 -0.01500985 10.63617229 -0.01015663 C12.60644238 -0.01389185 14.57671098 -0.01849286 16.54697722 -0.02388728 C21.97020477 -0.0361485 27.39337077 -0.03585314 32.81660903 -0.03349853 C38.66200093 -0.03309115 44.50737289 -0.04412193 50.35275555 -0.05361366 C61.80830026 -0.07024166 73.2638244 -0.07572402 84.71938018 -0.07683842 C94.02888347 -0.07778802 103.33837996 -0.08189393 112.64788151 -0.08823967 C115.32686652 -0.09003474 118.00585154 -0.09181436 120.68483657 -0.09358943 C121.35082624 -0.09403152 122.01681592 -0.09447362 122.7029871 -0.09492911 C141.43817291 -0.10723892 160.17335641 -0.1151301 178.90854645 -0.11424255 C179.61502182 -0.1142114 180.3214972 -0.11418024 181.04938092 -0.11414814 C184.63015365 -0.11398192 188.21092637 -0.11378384 191.79169909 -0.11357872 C192.50286297 -0.11353883 193.21402685 -0.11349894 193.94674116 -0.11345784 C195.38488813 -0.11337697 196.8230351 -0.11329337 198.26118208 -0.11320706 C220.63731869 -0.1119815 243.0133947 -0.12699505 265.38951397 -0.15435219 C290.52464772 -0.18506979 315.65974164 -0.20228488 340.79489535 -0.20042574 C354.10506989 -0.19968441 367.41518031 -0.20528478 380.72533894 -0.22678185 C392.05716278 -0.24496611 403.38888728 -0.24936363 414.72071937 -0.235763 C420.50395073 -0.22921951 426.28699136 -0.22916605 432.07020473 -0.2464695 C437.36336733 -0.26214404 442.65618708 -0.25939406 447.94934102 -0.24190123 C449.8652043 -0.23881894 451.7810928 -0.24250973 453.69692633 -0.25362138 C456.30052816 -0.26772306 458.9029242 -0.25717185 461.50648499 -0.24050903 C462.25091676 -0.25044539 462.99534853 -0.26038175 463.76233885 -0.27061921 C470.20254594 -0.18343445 475.33607725 1.97367787 480.1841917 6.22211266 C480.72301983 6.87308922 481.26184795 7.52406578 481.8170042 8.19476891 C482.37130108 8.84316734 482.92559795 9.49156578 483.4966917 10.15961266 C487.97612517 16.66084448 487.61664149 23.62867807 486.9420042 31.25726891 C485.26114838 37.91686224 480.47822098 42.44274338 474.9420042 46.25726891 C470.62887501 48.43514764 466.61765266 48.54043196 461.88400841 48.51453781 C461.07359334 48.51804389 460.26317827 48.52154996 459.42820516 48.52516228 C456.70134761 48.53449685 453.97470267 48.52954766 451.24783611 48.52469444 C449.27756603 48.52842966 447.30729743 48.53303067 445.33703119 48.53842509 C439.91380364 48.55068631 434.49063764 48.55039095 429.06739938 48.54803634 C423.22200748 48.54762896 417.37663552 48.55865974 411.53125286 48.56815147 C400.07570814 48.58477947 388.620184 48.59026183 377.16462823 48.59137623 C367.85512493 48.59232584 358.54562845 48.59643174 349.2361269 48.60277748 C346.55714189 48.60457255 343.87815687 48.60635218 341.19917184 48.60812724 C340.53318217 48.60856933 339.86719249 48.60901143 339.18102131 48.60946692 C320.4458355 48.62177673 301.710652 48.62966791 282.97546196 48.62878036 C282.26898658 48.62874921 281.56251121 48.62871805 280.83462749 48.62868595 C277.25385476 48.62851973 273.67308204 48.62832165 270.09230932 48.62811653 C269.02556349 48.6280567 269.02556349 48.6280567 267.93726725 48.62799565 C266.49912028 48.62791478 265.0609733 48.62783118 263.62282633 48.62774487 C241.24668972 48.62651931 218.87061371 48.64153286 196.49449444 48.66889 C171.35936069 48.6996076 146.22426676 48.71682269 121.08911306 48.71496356 C107.77893851 48.71422222 94.46882809 48.71982259 81.15866947 48.74131966 C69.82684563 48.75950392 58.49512112 48.76390144 47.16328903 48.75030081 C41.38005768 48.74375732 35.59701705 48.74370386 29.81380367 48.76100731 C24.52064108 48.77668185 19.22782133 48.77393187 13.93466739 48.75643905 C12.01880411 48.75335675 10.10291561 48.75704754 8.18708207 48.7681592 C5.58348025 48.78226087 2.98108421 48.77170966 0.37752342 48.75504684 C-0.36690835 48.7649832 -1.11134013 48.77491956 -1.87833044 48.78515702 C-8.31853754 48.69797227 -13.45206884 46.54085995 -18.3001833 42.29242516 C-18.83901142 41.64144859 -19.37783955 40.99047203 -19.9329958 40.31976891 C-20.48729267 39.67137047 -21.04158955 39.02297203 -21.6126833 38.35492516 C-26.09211677 31.85369334 -25.73263308 24.88585974 -25.0579958 17.25726891 C-23.37713997 10.59767557 -18.59421258 6.07179443 -13.0579958 2.25726891 C-8.7448666 0.07939017 -4.73364426 -0.02589415 0 0 Z " fill="#FBA74B" transform="translate(25.057995796203613,231.74273109436035)"/>
<path d="M0 0 C15.37743824 -0.09357552 30.75486331 -0.16404384 46.13252258 -0.20724869 C53.27317847 -0.22784561 60.41365712 -0.25591085 67.55419922 -0.30175781 C73.78025752 -0.34171403 80.00618741 -0.36745368 86.23237038 -0.37635398 C89.52704457 -0.38155404 92.82126734 -0.39583525 96.11584473 -0.42292023 C99.80010662 -0.45200134 103.48361035 -0.45595384 107.16796875 -0.45410156 C108.25194443 -0.46848267 109.3359201 -0.48286377 110.45274353 -0.49768066 C118.06510558 -0.45633074 123.36168814 0.81172323 129.2421875 5.96484375 C129.78101563 6.61582031 130.31984375 7.26679688 130.875 7.9375 C131.42929687 8.58589844 131.98359375 9.23429688 132.5546875 9.90234375 C137.03412097 16.40357557 136.67463728 23.37140917 136 31 C134.31914417 37.65959333 129.53621678 42.18547447 124 46 C120.1757606 47.82614604 117.15395692 48.24787089 112.93193054 48.24050903 C111.10416328 48.24463303 111.10416328 48.24463303 109.23947144 48.24884033 C107.89752098 48.24176306 106.55557153 48.23449346 105.21362305 48.22705078 C103.79418445 48.22648636 102.37474527 48.22680383 100.95530701 48.22793579 C97.10856701 48.22850911 93.26195199 48.21675816 89.415241 48.20278788 C85.39270395 48.19027708 81.37016398 48.18910974 77.34761047 48.18673706 C69.73331642 48.18052332 62.11907986 48.16411393 54.50481111 48.14403808 C45.83497703 48.12167579 37.16514019 48.11068482 28.49528444 48.10064721 C10.66349037 48.07974762 -7.16825019 48.04457369 -25 48 C-23.73733762 44.7713435 -22.42497322 41.87377005 -20.56640625 38.9453125 C-20.08107422 38.16285156 -19.59574219 37.38039063 -19.09570312 36.57421875 C-18.11508078 35.0077214 -17.12864497 33.44483876 -16.13476562 31.88671875 C-12.00375351 25.18922829 -8.64057875 18.2032814 -5.27319336 11.09716797 C-4.76491753 10.02925522 -4.25664169 8.96134247 -3.73296356 7.86106873 C-2.48660962 5.24167038 -1.24235177 2.62129827 0 0 Z " fill="#F9973E" transform="translate(376,232)"/>
<path d="M0 0 C12.99596103 -0.11607391 25.99179784 -0.20480708 38.98817253 -0.25906086 C45.02355187 -0.28510578 51.0585754 -0.32041127 57.09375 -0.37719727 C62.92281699 -0.431698 68.75154267 -0.46145891 74.58084488 -0.47438622 C76.79992161 -0.48359362 79.01898059 -0.50157349 81.23791122 -0.52865028 C84.35676554 -0.56517986 87.47422642 -0.56993526 90.59326172 -0.56762695 C91.95596947 -0.59459152 91.95596947 -0.59459152 93.34620667 -0.62210083 C100.82371758 -0.56258629 107.39658701 1.65019172 112.95153618 6.81418896 C118.82973538 13.21377866 119.70839052 19.66245342 119.44140625 28.19140625 C118.68826639 34.68973686 115.95276824 39.15509544 111.2890625 43.6484375 C104.75611707 48.76246265 97.67415801 49.29522183 89.66821289 49.22705078 C88.76010864 49.22734283 87.85200439 49.22763489 86.91638184 49.22793579 C83.93504048 49.22654999 80.95395359 49.2110242 77.97265625 49.1953125 C75.89757931 49.1915797 73.8225006 49.18873399 71.74742126 49.18673706 C66.30092453 49.17912161 60.85453543 49.15949107 55.40808105 49.1373291 C49.84433447 49.11682564 44.2805704 49.10772573 38.71679688 49.09765625 C27.81115078 49.0762432 16.90558436 49.04213251 6 49 C5.91795822 48.23380341 5.83591644 47.46760681 5.75138855 46.67819214 C5.37258289 43.15750825 4.98905755 39.63735333 4.60546875 36.1171875 C4.47652222 34.91215576 4.34757568 33.70712402 4.21472168 32.46557617 C3.3221419 24.3147314 2.13494891 16.30050984 0.55078125 8.2578125 C0.06828204 5.40388098 -0.04315297 2.87870071 0 0 Z " fill="#F9973D" transform="translate(393,63)"/>
</svg>
