<?xml version="1.0" encoding="UTF-8"?>
<svg version="1.1" xmlns="http://www.w3.org/2000/svg" width="180" height="180">
<path d="M0 0 C1.11375 0.66 2.2275 1.32 3.375 2 C3.375 2.66 3.375 3.32 3.375 4 C4.035 4 4.695 4 5.375 4 C5.766875 4.78375 6.15875 5.5675 6.5625 6.375 C8.99951318 9.90446737 11.28126822 10.15035756 15.375 11 C14.8490625 12.11375 14.8490625 12.11375 14.3125 13.25 C13.30710589 16.19915607 13.33167995 17.15458168 14.375 20 C16.58936603 26.6430981 16.39214869 34.5541713 13.625 41 C9.94538466 47.98999593 5.23752993 52.14479496 -1.625 56 C-2.285 56 -2.945 56 -3.625 56 C-4.04044305 64.03189893 -2.44263989 71.20204234 -0.625 79 C1.01949683 86.54468476 1.20627987 92.42343472 -2.45703125 99.37109375 C-3.625 101 -3.625 101 -6.625 103 C-9.5625 103.4375 -9.5625 103.4375 -12.625 103 C-17.34180291 98.15571593 -17.84703333 94.52782937 -17.875 88 C-17.88092163 86.81059814 -17.88092163 86.81059814 -17.88696289 85.59716797 C-17.82267436 78.86476706 -16.92599854 72.43328693 -15.60449219 65.83984375 C-14.62555099 60.86125209 -14.62555099 60.86125209 -15.625 56 C-17.27749487 55.29894157 -18.94867583 54.64199649 -20.625 54 C-26.59949288 50.01700475 -32.43158371 46.08426795 -34.625 39 C-34.93738237 35.87138744 -34.94966011 32.76717337 -34.9375 29.625 C-34.95361328 28.8 -34.96972656 27.975 -34.98632812 27.125 C-34.99068365 21.63703452 -34.12114815 17.89118651 -31.625 13 C-30.4013932 10.9254644 -30.4013932 10.9254644 -30.625 8 C-28.975 8 -27.325 8 -25.625 8 C-25.295 6.68 -24.965 5.36 -24.625 4 C-23.965 4 -23.305 4 -22.625 4 C-22.295 3.01 -21.965 2.02 -21.625 1 C-14.66678498 -2.99727246 -7.27666366 -3.61901325 0 0 Z M-13.625 3 C-10.985 3 -8.345 3 -5.625 3 C-9.59479568 0.35346955 -9.65520432 0.35346955 -13.625 3 Z M-18.625 9 C-18.2125 9.4125 -17.8 9.825 -17.375 10.25 C-16.7975 10.8275 -16.22 11.405 -15.625 12 C-14.92375 12.53625 -14.2225 13.0725 -13.5 13.625 C-11.05686485 16.71963785 -11.06511711 19.11728839 -10.8984375 22.9765625 C-10.8025024 25.22652641 -10.8025024 25.22652641 -8.625 27 C-8.563125 25.96875 -8.50125 24.9375 -8.4375 23.875 C-7.18680285 17.91013667 -3.61312103 14.32541402 1.375 11 C-6.13528128 6.34362561 -10.52998279 4.9524914 -18.625 9 Z M-28.625 16 C-28.955 18.31 -29.285 20.62 -29.625 23 C-29.295 22.01 -28.965 21.02 -28.625 20 C-27.965 19.67 -27.305 19.34 -26.625 19 C-27.285 18.01 -27.945 17.02 -28.625 16 Z M-24.625 22 C-26.39200632 23.76700632 -25.92191228 26.16280416 -26 28.5625 C-25.94954732 34.6168221 -24.7440968 38.53391407 -20.625 43 C-17.43228218 45.43222216 -17.43228218 45.43222216 -13.625 46 C-13.625 47.32 -13.625 48.64 -13.625 50 C-15.275 49.67 -16.925 49.34 -18.625 49 C-17.305 50.32 -15.985 51.64 -14.625 53 C-13.965 52.67 -13.305 52.34 -12.625 52 C-10.49940429 43.75865521 -9.69154856 35.02845814 -12.3203125 26.83203125 C-14.21380817 24.1732005 -16.12265894 23.97728862 -19.25 23.25 C-20.25289062 23.00765625 -21.25578125 22.7653125 -22.2890625 22.515625 C-23.05992188 22.34546875 -23.83078125 22.1753125 -24.625 22 Z M-30.625 23 C-32.22324153 31.00857985 -30.90701479 36.59081641 -27.625 44 C-26.965 44 -26.305 44 -25.625 44 C-26.92655006 39.92035719 -26.92655006 39.92035719 -28.625 36 C-28.85450319 33.795636 -29.03575933 31.58607827 -29.1875 29.375 C-29.27128906 28.18648437 -29.35507813 26.99796875 -29.44140625 25.7734375 C-29.53228516 24.40058594 -29.53228516 24.40058594 -29.625 23 C-29.955 23 -30.285 23 -30.625 23 Z M-5.625 23 C-4.625 25 -4.625 25 -4.625 25 Z M9.375 23 C8.09253847 25.02259692 8.09253847 25.02259692 9 27.5 C9.52949735 32.44197524 7.98601709 36.36633204 6.375 41 C6.045 41.99 5.715 42.98 5.375 44 C8.44723927 43.3587907 8.44723927 43.3587907 9.32421875 41.21484375 C11.03947382 35.92387175 11.85480162 31.56569881 11.375 26 C10.715 25.01 10.055 24.02 9.375 23 Z M-8.625 27 C-8.60179687 27.95777344 -8.57859375 28.91554688 -8.5546875 29.90234375 C-8.34901484 42.25997365 -9.45750994 54.20246176 -11.84057617 66.32958984 C-13.16819482 73.16480716 -13.9824956 79.8431883 -14.125 86.8125 C-14.1554541 87.57167725 -14.1859082 88.33085449 -14.21728516 89.11303711 C-14.27567199 91.54415386 -14.27567199 91.54415386 -13.625 95 C-11.26170049 97.54328234 -11.26170049 97.54328234 -8.625 99 C-5.11537751 95.60359114 -3.4707154 93.78800458 -3.3125 88.875 C-3.33344076 84.05164428 -4.3618779 79.68613719 -5.625 75.0625 C-7.62671982 67.71451296 -9.09926482 60.42279445 -6.625 53 C-4.97295544 52.29788106 -3.30576231 51.63028587 -1.625 51 C-1.295 50.34 -0.965 49.68 -0.625 49 C-4.23492379 49.65585189 -4.23492379 49.65585189 -7.625 51 C-7.625 49.35 -7.625 47.7 -7.625 46 C-6.903125 45.938125 -6.18125 45.87625 -5.4375 45.8125 C-0.8863846 44.49773333 1.3427883 41.31695976 4.1875 37.6875 C5.83875585 33.95044728 5.58170128 31.06512527 5.375 27 C4.61574219 27.08378906 3.85648438 27.16757813 3.07421875 27.25390625 C2.08035156 27.35574219 1.08648437 27.45757812 0.0625 27.5625 C-0.92363281 27.66691406 -1.90976563 27.77132812 -2.92578125 27.87890625 C-5.625 28 -5.625 28 -8.625 27 Z M-25.625 44 C-25.625 44.66 -25.625 45.32 -25.625 46 C-23.6649719 47.63676257 -23.6649719 47.63676257 -21.625 49 C-20.965 48.67 -20.305 48.34 -19.625 48 C-20.91465176 46.62437146 -22.25189293 45.29233607 -23.625 44 C-24.285 44 -24.945 44 -25.625 44 Z M3.375 44 C3.375 44.66 3.375 45.32 3.375 46 C4.035 46 4.695 46 5.375 46 C5.375 45.34 5.375 44.68 5.375 44 C4.715 44 4.055 44 3.375 44 Z M1.375 46 C0.385 47.485 0.385 47.485 -0.625 49 C0.695 48.67 2.015 48.34 3.375 48 C3.375 47.34 3.375 46.68 3.375 46 C2.715 46 2.055 46 1.375 46 Z " fill="#75A238" transform="translate(98.625,39)"/>
<path d="M0 0 C1.670625 0.99 1.670625 0.99 3.375 2 C3.375 2.66 3.375 3.32 3.375 4 C4.035 4 4.695 4 5.375 4 C5.766875 4.78375 6.15875 5.5675 6.5625 6.375 C8.99951318 9.90446737 11.28126822 10.15035756 15.375 11 C14.8490625 12.11375 14.8490625 12.11375 14.3125 13.25 C13.30710589 16.19915607 13.33167995 17.15458168 14.375 20 C16.58936603 26.6430981 16.39214869 34.5541713 13.625 41 C10.25569536 47.42163636 6.7443136 50.6928564 0.375 54 C-0.285 52.68 -0.945 51.36 -1.625 50 C-4.595 50.495 -4.595 50.495 -7.625 51 C-7.625 49.35 -7.625 47.7 -7.625 46 C-6.0471875 45.505 -6.0471875 45.505 -4.4375 45 C0.25917766 42.97080661 2.41924629 39.62343451 4.375 35 C5.0012052 32.2678899 5.22415434 29.81578565 5.375 27 C4.67375 27.33 3.9725 27.66 3.25 28 C0.05464413 29.11142813 -2.26418352 29.29224491 -5.625 29 C-6.615 28.34 -7.605 27.68 -8.625 27 C-9.24541544 23.4843125 -9.35296929 21.10865048 -7.34765625 18.0546875 C-5.83681003 16.28895524 -4.28279217 14.62772858 -2.625 13 C-1.965 12.34 -1.305 11.68 -0.625 11 C-4.28962412 8.52098956 -7.1863202 7.27175591 -11.625 7 C-14.91361095 7.8447856 -14.91361095 7.8447856 -17.625 9 C-17.625 9.66 -17.625 10.32 -17.625 11 C-18.285 11 -18.945 11 -19.625 11 C-20.285 10.34 -20.945 9.68 -21.625 9 C-23.69374034 8.3574765 -23.69374034 8.3574765 -25.625 8 C-25.295 6.68 -24.965 5.36 -24.625 4 C-23.965 4 -23.305 4 -22.625 4 C-22.295 3.01 -21.965 2.02 -21.625 1 C-14.66678498 -2.99727246 -7.27666366 -3.61901325 0 0 Z M-13.625 3 C-10.985 3 -8.345 3 -5.625 3 C-9.59479568 0.35346955 -9.65520432 0.35346955 -13.625 3 Z M-5.625 23 C-4.625 25 -4.625 25 -4.625 25 Z M9.375 23 C8.09253847 25.02259692 8.09253847 25.02259692 9 27.5 C9.52949735 32.44197524 7.98601709 36.36633204 6.375 41 C6.045 41.99 5.715 42.98 5.375 44 C8.44723927 43.3587907 8.44723927 43.3587907 9.32421875 41.21484375 C11.03947382 35.92387175 11.85480162 31.56569881 11.375 26 C10.715 25.01 10.055 24.02 9.375 23 Z M3.375 44 C3.375 44.66 3.375 45.32 3.375 46 C4.035 46 4.695 46 5.375 46 C5.375 45.34 5.375 44.68 5.375 44 C4.715 44 4.055 44 3.375 44 Z M1.375 46 C0.385 47.485 0.385 47.485 -0.625 49 C0.695 48.67 2.015 48.34 3.375 48 C3.375 47.34 3.375 46.68 3.375 46 C2.715 46 2.055 46 1.375 46 Z " fill="#8BB138" transform="translate(98.625,39)"/>
<path d="M0 0 C1.32 0.99 2.64 1.98 4 3 C3.67 4.32 3.34 5.64 3 7 C3.99 7 4.98 7 6 7 C7.08456133 10.253684 6.94144244 12.28939668 6.75 15.6875 C6.70648009 21.6787412 7.78433338 25.65361504 12 30 C15.11720751 32.02212048 15.11720751 32.02212048 18 33 C18 34.32 18 35.64 18 37 C16.68 37 15.36 37 14 37 C14.66 37.33 15.32 37.66 16 38 C16 38.99 16 39.98 16 41 C16.66 41 17.32 41 18 41 C18.33 43.31 18.66 45.62 19 48 C17.5 46.625 17.5 46.625 16 45 C16 44.34 16 43.68 16 43 C15.34 42.79375 14.68 42.5875 14 42.375 C7.99045953 39.62062728 1.07399434 34.90090633 -2.08203125 28.96484375 C-3.36408795 24.82407338 -3.32917965 20.93502262 -3.3125 16.625 C-3.32861328 15.8 -3.34472656 14.975 -3.36132812 14.125 C-3.36566941 8.6549806 -2.49077604 4.87640058 0 0 Z M1 10 C-0.59824153 18.00857985 0.71798521 23.59081641 4 31 C4.66 31 5.32 31 6 31 C4.69844994 26.92035719 4.69844994 26.92035719 3 23 C2.77049681 20.795636 2.58924067 18.58607827 2.4375 16.375 C2.35371094 15.18648437 2.26992187 13.99796875 2.18359375 12.7734375 C2.09271484 11.40058594 2.09271484 11.40058594 2 10 C1.67 10 1.34 10 1 10 Z M6 31 C6 31.66 6 32.32 6 33 C7.9600281 34.63676257 7.9600281 34.63676257 10 36 C10.66 35.67 11.32 35.34 12 35 C10.71034824 33.62437146 9.37310707 32.29233607 8 31 C7.34 31 6.68 31 6 31 Z " fill="#7FA83C" transform="translate(67,52)"/>
<path d="M0 0 C0.99 0.33 1.98 0.66 3 1 C2.67 2.32 2.34 3.64 2 5 C1.34 5 0.68 5 0 5 C-0.41544305 13.03189893 1.18236011 20.20204234 3 28 C4.64449683 35.54468476 4.83127987 41.42343472 1.16796875 48.37109375 C0 50 0 50 -3 52 C-5.9375 52.4375 -5.9375 52.4375 -9 52 C-11.46415809 49.83224872 -12.83917578 48.10824304 -13.31811523 44.80786133 C-13.39355474 42.25638052 -13.34890369 39.73807394 -13.25 37.1875 C-13.23195313 36.30384766 -13.21390625 35.42019531 -13.1953125 34.50976562 C-13.14838513 32.33937457 -13.07664731 30.16954481 -13 28 C-12.34 28 -11.68 28 -11 28 C-10.90203125 29.12019531 -10.8040625 30.24039063 -10.703125 31.39453125 C-10.55303546 32.86728484 -10.40194123 34.33993629 -10.25 35.8125 C-10.188125 36.55048828 -10.12625 37.28847656 -10.0625 38.04882812 C-9.69490351 41.43377917 -9.46318489 43.52291956 -7.046875 46.01171875 C-5.07865235 47.14493238 -5.07865235 47.14493238 -3 47 C0.96961133 39.55697875 -0.90583006 31.79775504 -3 24.0625 C-6.37344025 11.44722366 -6.37344025 11.44722366 -5 5 C-3.53079092 2.68180158 -2.26214912 1.64005811 0 0 Z " fill="#8BB140" transform="translate(95,90)"/>
<path d="M0 0 C1.670625 0.99 1.670625 0.99 3.375 2 C3.375 2.66 3.375 3.32 3.375 4 C4.035 4 4.695 4 5.375 4 C5.766875 4.78375 6.15875 5.5675 6.5625 6.375 C8.99951318 9.90446737 11.28126822 10.15035756 15.375 11 C14.715 11.99 14.055 12.98 13.375 14 C13.375 13.01 13.375 12.02 13.375 11 C12.42238281 11.03480469 11.46976563 11.06960937 10.48828125 11.10546875 C9.23402344 11.13253906 7.97976562 11.15960938 6.6875 11.1875 C5.44613281 11.22230469 4.20476562 11.25710937 2.92578125 11.29296875 C-0.86243089 10.98040999 -2.5493811 10.12595412 -5.625 8 C-10.2908592 6.7094432 -13.16210477 7.19359003 -17.625 9 C-17.625 9.66 -17.625 10.32 -17.625 11 C-18.285 11 -18.945 11 -19.625 11 C-20.285 10.34 -20.945 9.68 -21.625 9 C-23.69374034 8.3574765 -23.69374034 8.3574765 -25.625 8 C-25.295 6.68 -24.965 5.36 -24.625 4 C-23.965 4 -23.305 4 -22.625 4 C-22.295 3.01 -21.965 2.02 -21.625 1 C-14.66678498 -2.99727246 -7.27666366 -3.61901325 0 0 Z M-13.625 3 C-10.985 3 -8.345 3 -5.625 3 C-9.59479568 0.35346955 -9.65520432 0.35346955 -13.625 3 Z " fill="#89AF33" transform="translate(98.625,39)"/>
<path d="M0 0 C3.63 0.33 7.26 0.66 11 1 C11 1.66 11 2.32 11 3 C11.969375 3.144375 12.93875 3.28875 13.9375 3.4375 C17 4 17 4 18 5 C18.04063832 6.66617115 18.042721 8.33388095 18 10 C17.01 10.495 17.01 10.495 16 11 C16.33 12.32 16.66 13.64 17 15 C7.93425606 15.62283737 7.93425606 15.62283737 4.375 13.25 C3 11 3 11 3 7 C2.34 7 1.68 7 1 7 C0.67 4.69 0.34 2.38 0 0 Z " fill="#8AB43A" transform="translate(68,47)"/>
<path d="M0 0 C0.99 0 1.98 0 3 0 C4.08456133 3.253684 3.94144244 5.28939668 3.75 8.6875 C3.70648009 14.6787412 4.78433338 18.65361504 9 23 C12.11720751 25.02212048 12.11720751 25.02212048 15 26 C15 27.32 15 28.64 15 30 C12.25 30.3125 12.25 30.3125 9 30 C6.875 27.75 6.875 27.75 5 25 C4.29875 24.34 3.5975 23.68 2.875 23 C-0.94823972 18.92187763 -1.25618105 14.80704656 -1.1875 9.375 C-1.18105469 8.24835938 -1.17460938 7.12171875 -1.16796875 5.9609375 C-1 3 -1 3 0 0 Z " fill="#E07316" transform="translate(70,59)"/>
<path d="M0 0 C0.99 0.33 1.98 0.66 3 1 C2.67 2.32 2.34 3.64 2 5 C1.34 5 0.68 5 0 5 C-0.23677492 10.80098558 0.30863758 15.39736199 2 21 C2.16488156 23.80298645 2.22372745 26.16102208 1.5 28.875 C0.70800771 32.24096722 0.94249084 35.5494505 1 39 C0.67 39 0.34 39 0 39 C-0.11593506 38.40985107 -0.23187012 37.81970215 -0.35131836 37.21166992 C-0.87802567 34.5365443 -1.40772865 31.86202044 -1.9375 29.1875 C-2.11990234 28.25873047 -2.30230469 27.32996094 -2.49023438 26.37304688 C-2.66748047 25.48037109 -2.84472656 24.58769531 -3.02734375 23.66796875 C-3.18968506 22.84578857 -3.35202637 22.0236084 -3.51928711 21.17651367 C-3.99618914 18.83778735 -3.99618914 18.83778735 -5 16 C-6.01210556 6.65971156 -6.01210556 6.65971156 -3.8828125 3.16796875 C-2.5 1.8125 -2.5 1.8125 0 0 Z " fill="#7EAA35" transform="translate(95,90)"/>
<path d="M0 0 C0.66 0 1.32 0 2 0 C3.68486587 5.82044573 2.1377083 10.52859682 0 16 C-0.66 16.99 -1.32 17.98 -2 19 C-2.66 19 -3.32 19 -4 19 C-4 19.66 -4 20.32 -4 21 C-11.42857143 25.42857143 -11.42857143 25.42857143 -15 26 C-15 24.35 -15 22.7 -15 21 C-13.948125 20.67 -12.89625 20.34 -11.8125 20 C-7.12056515 17.97285573 -4.94676978 14.62460501 -3 10 C-2.45085511 7.31998519 -2.2356917 4.73402367 -2 2 C-1.34 1.34 -0.68 0.68 0 0 Z " fill="#E06E14" transform="translate(106,64)"/>
<path d="M0 0 C0.66 0.33 1.32 0.66 2 1 C2.34375 2.75 2.34375 2.75 2.5 5 C2.78457851 8.2700658 3.261294 11.31758736 4.0625 14.5 C5.15255815 19.07824424 5.1490474 23.30500702 5 28 C4.34 27.01 3.68 26.02 3 25 C2.96261719 25.90363281 2.92523438 26.80726562 2.88671875 27.73828125 C2.82097656 28.91777344 2.75523438 30.09726563 2.6875 31.3125 C2.62949219 32.48425781 2.57148437 33.65601563 2.51171875 34.86328125 C1.98395232 38.0983686 1.57619276 39.08684881 -1 41 C-1 40.34 -1 39.68 -1 39 C-1.66 39 -2.32 39 -3 39 C-2.67 38.34 -2.34 37.68 -2 37 C-1.67 37 -1.34 37 -1 37 C0.79077778 27.55771715 1.47719409 19.33711619 -1 10 C-3.31 9.67 -5.62 9.34 -8 9 C-8 8.67 -8 8.34 -8 8 C-6.02 7.67 -4.04 7.34 -2 7 C-2.33 5.68 -2.66 4.36 -3 3 C-2.01 3 -1.02 3 0 3 C0 2.01 0 1.02 0 0 Z " fill="#80A52F" transform="translate(86,54)"/>
<path d="M0 0 C3.0625 1.625 3.0625 1.625 5.0625 3.625 C5.0625 4.615 5.0625 5.605 5.0625 6.625 C1.88635726 6.14376625 -0.30079414 5.43636651 -3.1875 3.9375 C-8.04079845 2.23884554 -11.15097099 3.11632079 -15.9375 4.625 C-15.9375 5.285 -15.9375 5.945 -15.9375 6.625 C-16.5975 6.625 -17.2575 6.625 -17.9375 6.625 C-18.5975 5.305 -19.2575 3.985 -19.9375 2.625 C-13.98873911 -2.09298277 -7.07496017 -2.93677592 0 0 Z " fill="#E17116" transform="translate(96.9375,43.375)"/>
<path d="M0 0 C0.66 1.32 1.32 2.64 2 4 C2.66 4 3.32 4 4 4 C4 4.66 4 5.32 4 6 C4.53625 6.268125 5.0725 6.53625 5.625 6.8125 C8.41666667 8.20833333 11.20833333 9.60416667 14 11 C14 11.99 14 12.98 14 14 C14.66 14 15.32 14 16 14 C16.33 16.31 16.66 18.62 17 21 C15.5 19.625 15.5 19.625 14 18 C14 17.34 14 16.68 14 16 C13.34 15.79375 12.68 15.5875 12 15.375 C6.25123041 12.74014727 1.27948489 8.63610863 -3 4 C-2.67 3.01 -2.34 2.02 -2 1 C-2 1.66 -2 2.32 -2 3 C-1.34 3 -0.68 3 0 3 C0 2.01 0 1.02 0 0 Z " fill="#7BA436" transform="translate(69,79)"/>
<path d="M0 0 C0.33 0 0.66 0 1 0 C0.98839844 0.84304687 0.97679688 1.68609375 0.96484375 2.5546875 C0.95582031 3.65039062 0.94679688 4.74609375 0.9375 5.875 C0.92589844 6.96554688 0.91429688 8.05609375 0.90234375 9.1796875 C0.80255697 11.95177546 0.80255697 11.95177546 2 14 C-0.53230536 19.36848736 -3.16115886 22.57248752 -8 26 C-10.375 26.8125 -10.375 26.8125 -12 27 C-12.33 25.68 -12.66 24.36 -13 23 C-11.35 22.34 -9.7 21.68 -8 21 C-8 20.34 -8 19.68 -8 19 C-7.34 19 -6.68 19 -6 19 C-6 18.34 -6 17.68 -6 17 C-5.34 16.67 -4.68 16.34 -4 16 C-1.70633841 10.88590286 -0.58970326 5.54321063 0 0 Z " fill="#84AC2F" transform="translate(110,66)"/>
<path d="M0 0 C4.5506553 4.5506553 4.11185972 8.7748986 4.1328125 14.9140625 C4 17 4 17 3 20 C2.01 20 1.02 20 0 20 C0 13.4 0 6.8 0 0 Z " fill="#8BB23F" transform="translate(95,115)"/>
<path d="M0 0 C0.33 0.99 0.66 1.98 1 3 C1.66 3 2.32 3 3 3 C1.75023244 6.65316671 1.32901247 7.78065836 -2 10 C-4.9375 10.4375 -4.9375 10.4375 -8 10 C-10.375 7.5 -10.375 7.5 -12 5 C-11.67 4.34 -11.34 3.68 -11 3 C-10.1028125 4.2065625 -10.1028125 4.2065625 -9.1875 5.4375 C-7.19052724 8.22327984 -7.19052724 8.22327984 -4 9 C-4 8.34 -4 7.68 -4 7 C-4.66 7 -5.32 7 -6 7 C-5.67 6.34 -5.34 5.68 -5 5 C-4.01 5 -3.02 5 -2 5 C-1.34 3.35 -0.68 1.7 0 0 Z " fill="#6B982F" transform="translate(94,132)"/>
<path d="M0 0 C0.33 0 0.66 0 1 0 C1.20127315 11.21538747 1.25572049 21.96308188 -1 33 C-1.33 33 -1.66 33 -2 33 C-2.20127315 21.78461253 -2.25572049 11.03691812 0 0 Z " fill="#85B035" transform="translate(89,74)"/>
<path d="M0 0 C4.875 2.75 4.875 2.75 6 5 C6.11901209 7.73727797 6.20930316 10.21511314 5.5 12.875 C4.70800771 16.24096722 4.94249084 19.5494505 5 23 C4.67 23 4.34 23 4 23 C3.32861379 19.73011701 2.66370737 16.45894951 2 13.1875 C1.80921875 12.25873047 1.6184375 11.32996094 1.421875 10.37304688 C1.24140625 9.48037109 1.0609375 8.58769531 0.875 7.66796875 C0.62363281 6.43469849 0.62363281 6.43469849 0.3671875 5.17651367 C0 3 0 3 0 0 Z " fill="#649539" transform="translate(91,106)"/>
<path d="M0 0 C2.475 0.99 2.475 0.99 5 2 C5 2.99 5 3.98 5 5 C5.66 5 6.32 5 7 5 C7.33 7.31 7.66 9.62 8 12 C6.5 10.625 6.5 10.625 5 9 C5 8.34 5 7.68 5 7 C3.8553125 6.5978125 3.8553125 6.5978125 2.6875 6.1875 C0.12619116 5.05575888 -1.19692938 4.08776599 -3 2 C-2.01 2 -1.02 2 0 2 C0 1.34 0 0.68 0 0 Z " fill="#6D993B" transform="translate(78,88)"/>
<path d="M0 0 C0.66 0.33 1.32 0.66 2 1 C2 3.64 2 6.28 2 9 C-4.0546875 9.9765625 -4.0546875 9.9765625 -6 10 C-6.66 9.34 -7.32 8.68 -8 8 C-6.02 7.67 -4.04 7.34 -2 7 C-2.33 5.68 -2.66 4.36 -3 3 C-2.01 3 -1.02 3 0 3 C0 2.01 0 1.02 0 0 Z " fill="#86AE24" transform="translate(86,54)"/>
<path d="M0 0 C0.66 0 1.32 0 2 0 C2.391875 0.78375 2.78375 1.5675 3.1875 2.375 C5.62451318 5.90446737 7.90626822 6.15035756 12 7 C11.01 8.485 11.01 8.485 10 10 C10 9.01 10 8.02 10 7 C8.7625 7.0825 7.525 7.165 6.25 7.25 C2.89493302 7.2737948 2.24552096 7.19641677 -0.5 5 C-0.995 4.34 -1.49 3.68 -2 3 C-1.34 2.67 -0.68 2.34 0 2 C0 1.34 0 0.68 0 0 Z " fill="#7AA524" transform="translate(102,43)"/>
<path d="M0 0 C0 0.66 0 1.32 0 2 C0.66 2.33 1.32 2.66 2 3 C-0.97180943 4.89865603 -3.51460083 6.35455571 -7 7 C-7 5.35 -7 3.7 -7 2 C-2.25 0 -2.25 0 0 0 Z " fill="#DA6B11" transform="translate(98,83)"/>
<path d="M0 0 C0.66 0.33 1.32 0.66 2 1 C1.01 1.33 0.02 1.66 -1 2 C-1 2.66 -1 3.32 -1 4 C-0.34 4.33 0.32 4.66 1 5 C0.01 6.32 -0.98 7.64 -2 9 C-3.32 8.67 -4.64 8.34 -6 8 C-5.67 6.68 -5.34 5.36 -5 4 C-4.34 4 -3.68 4 -3 4 C-2.67 3.01 -2.34 2.02 -2 1 C-1.34 0.67 -0.68 0.34 0 0 Z " fill="#84AC28" transform="translate(79,39)"/>
<path d="M0 0 C0.66 0 1.32 0 2 0 C3.70701221 5.89695128 1.95193635 10.41988817 0 16 C-1.07310858 12.72814447 -0.89263102 10.57052408 -0.0625 7.25 C0.13214844 6.45078125 0.32679687 5.6515625 0.52734375 4.828125 C0.68332031 4.22484375 0.83929688 3.6215625 1 3 C0.34 3 -0.32 3 -1 3 C-1.33 3.99 -1.66 4.98 -2 6 C-1.125 1.125 -1.125 1.125 0 0 Z " fill="#E0730A" transform="translate(106,64)"/>
<path d="M0 0 C1.32 0.99 2.64 1.98 4 3 C3.34 5.31 2.68 7.62 2 10 C1.34 10 0.68 10 0 10 C0 9.01 0 8.02 0 7 C-0.66 7 -1.32 7 -2 7 C-1.34 4.69 -0.68 2.38 0 0 Z " fill="#84A929" transform="translate(67,52)"/>
<path d="M0 0 C0.66 0 1.32 0 2 0 C2.19118486 4.77962147 1.98834962 8.60470084 0 13 C-0.99 13.33 -1.98 13.66 -3 14 C-2.690625 12.80375 -2.38125 11.6075 -2.0625 10.375 C-1.19968427 6.93597561 -0.52629514 3.50863427 0 0 Z " fill="#E17522" transform="translate(105,67)"/>
<path d="M0 0 C0.66 1.32 1.32 2.64 2 4 C0.4221875 3.690625 0.4221875 3.690625 -1.1875 3.375 C-5.08530821 2.99160903 -6.53998593 3.46221597 -10 5 C-10.99 4.67 -11.98 4.34 -13 4 C-12.34 4 -11.68 4 -11 4 C-11 3.34 -11 2.68 -11 2 C-7.12315913 0.80712589 -4.08378077 0 0 0 Z " fill="#709329" transform="translate(93,38)"/>
<path d="M0 0 C3.78786597 0.5260925 6.17152224 1.38103911 9 4 C9 4.66 9 5.32 9 6 C4.70042176 5.52226908 2.78280018 4.29813355 0 1 C0 0.67 0 0.34 0 0 Z " fill="#80A736" transform="translate(93,39)"/>
<path d="M0 0 C0.33 0 0.66 0 1 0 C1.08097324 2.27024968 1.13917704 4.54132075 1.1875 6.8125 C1.22230469 8.07707031 1.25710937 9.34164062 1.29296875 10.64453125 C1 14 1 14 -0.51171875 15.94921875 C-1.00285156 16.29597656 -1.49398437 16.64273438 -2 17 C-2 16.34 -2 15.68 -2 15 C-2.66 15 -3.32 15 -4 15 C-3.67 14.34 -3.34 13.68 -3 13 C-2.67 13 -2.34 13 -2 13 C-1.34 8.71 -0.68 4.42 0 0 Z " fill="#79AA28" transform="translate(87,78)"/>
<path d="M0 0 C1.32 0.33 2.64 0.66 4 1 C4.33 2.32 4.66 3.64 5 5 C4.34 5 3.68 5 3 5 C2.67 6.32 2.34 7.64 2 9 C1.34 6.03 0.68 3.06 0 0 Z " fill="#789926" transform="translate(85,63)"/>
<path d="M0 0 C0.33 0 0.66 0 1 0 C0.88557539 1.60495567 0.75805306 3.20898119 0.625 4.8125 C0.55539063 5.70582031 0.48578125 6.59914063 0.4140625 7.51953125 C0 10 0 10 -2 13 C-2.05416188 11.39620659 -2.09286638 9.79188594 -2.125 8.1875 C-2.14820312 7.29417969 -2.17140625 6.40085937 -2.1953125 5.48046875 C-2 3 -2 3 0 0 Z " fill="#8DB447" transform="translate(87,92)"/>
<path d="M0 0 C0.66 1.32 1.32 2.64 2 4 C2.66 4 3.32 4 4 4 C3.67 4.66 3.34 5.32 3 6 C2.34 5.67 1.68 5.34 1 5 C0.67 5.66 0.34 6.32 0 7 C-0.99 6.01 -1.98 5.02 -3 4 C-2.67 3.01 -2.34 2.02 -2 1 C-2 1.66 -2 2.32 -2 3 C-1.34 3 -0.68 3 0 3 C0 2.01 0 1.02 0 0 Z " fill="#64932A" transform="translate(69,79)"/>
<path d="M0 0 C2.475 0.99 2.475 0.99 5 2 C4.01 2.33 3.02 2.66 2 3 C2 3.66 2 4.32 2 5 C-0.475 4.01 -0.475 4.01 -3 3 C-2.01 2.67 -1.02 2.34 0 2 C0 1.34 0 0.68 0 0 Z " fill="#69902C" transform="translate(78,88)"/>
<path d="M0 0 C2.475 0.99 2.475 0.99 5 2 C3.36587557 3.70840281 2.13093906 4.93453047 0 6 C-0.66 4.68 -1.32 3.36 -2 2 C-1.34 1.34 -0.68 0.68 0 0 Z " fill="#C16F10" transform="translate(79,44)"/>
</svg>
